{"asset":{"generator":"Khronos glTF Spline I/O v0.0.1","version":"2.0"},"scenes":[{"nodes":[0]}],"nodes":[{"name":"Untitled","children":[1,2,3,4,5,6,7,8,9]},{"name":"Sphere copy","matrix":[0.9493970231495819,-0.25959471775695125,-0.176793311376301,0,0.21918557339453865,0.9507800793889098,-0.21903179005095225,0,0.2249510543438649,0.1691975861231648,0.9595671941035067,0,-93.02122683405977,-54.71502068659191,35.25846976589304,1],"mesh":0},{"name":"Sphere 2","matrix":[0.9317947270221308,0.2505744194286836,-0.2626233938965255,0,-0.29352849033706435,0.9821406415361879,-0.10436609652298244,0,0.22495105434386511,0.16919758612316502,0.9595671941035071,0,104.4690394981278,-50.458688658610455,31.589790613735282,1],"mesh":1},{"name":"Cube 3","matrix":[0.9975640502598242,-0.0024344658254111962,-0.06971397998507722,0,0,0.9993908270190958,-0.03489949670250097,0,0.0697564737441253,0.034814483282576254,0.9969563611936846,0,4.1297691485284815,122.5510580950404,0.20901410026079503,1],"mesh":2},{"name":"Shape","matrix":[0.998463992856997,-1.0842021724855044e-19,-0.05540446704068632,0,0.0005589127777062421,0.9999491161964185,0.010072369855621243,0,0.0554016478506679,-0.010087864888147089,0.9984131872113016,0,-15.835738045230158,83.12825792567381,47,1],"mesh":3},{"name":"Ellipse 2","matrix":[1,0,0,0,0,1,0,0,0,0,1,0,50.1005102345768,122.3136976770628,41.999999999999964,1],"mesh":4},{"name":"Ellipse","matrix":[1,0,0,0,0,1,0,0,0,0,1,0,-42.8994897654232,122.3136976770628,47,1],"mesh":5},{"name":"Cube","matrix":[1,0,0,0,0,1,0,0,0,0,1,0,0,120.5,-1,1],"mesh":6},{"name":"Sphere","matrix":[1,0,0,0,0,1,0,0,0,0,1,0,3,-69.5,18,1],"mesh":7},{"name":"Default Camera","camera":0,"translation":[107.42870426704187,23.073661469172347,993.9450083610793],"rotation":[-0.011520885032967866,0.05380302061702828,0.0006207989802589658,0.9984849116482266],"children":[10]},{"name":"Default Directional Light","translation":[850000,1300000,1000000],"rotation":[-0.45895513091666534,0.1367267597249462,-0.25064115022945466,0.8413352451859125],"extensions":{"KHR_lights_punctual":{"light":0}}}],"cameras":[{"type":"orthographic","orthographic":{"xmag":1536,"ymag":754,"zfar":50000,"znear":-50000}}],"meshes":[{"primitives":[{"attributes":{"POSITION":1,"NORMAL":2,"TEXCOORD_0":3},"indices":0}]},{"primitives":[{"attributes":{"POSITION":5,"NORMAL":6,"TEXCOORD_0":7},"indices":4}]},{"primitives":[{"attributes":{"POSITION":9,"NORMAL":10,"TEXCOORD_0":11},"indices":8}]},{"primitives":[{"attributes":{"POSITION":13,"NORMAL":14,"TEXCOORD_0":15},"indices":12}]},{"primitives":[{"attributes":{"POSITION":17,"NORMAL":18,"TEXCOORD_0":19},"indices":16}]},{"primitives":[{"attributes":{"POSITION":21,"NORMAL":22,"TEXCOORD_0":23},"indices":20}]},{"primitives":[{"attributes":{"POSITION":25,"NORMAL":26,"TEXCOORD_0":27},"indices":24}]},{"primitives":[{"attributes":{"POSITION":29,"NORMAL":30,"TEXCOORD_0":31},"indices":28}]}],"buffers":[{"uri":"data:application/octet-stream;base64,","byteLength":183584},{"uri":"data:application/octet-stream;base64,","byteLength":183584},{"uri":"data:application/octet-stream;base64,","byteLength":840},{"uri":"data:application/octet-stream;base64,","byteLength":4400},{"uri":"data:application/octet-stream;base64,","byteLength":44000},{"uri":"data:application/octet-stream;base64,","byteLength":44000},{"uri":"data:application/octet-stream;base64,","byteLength":23496},{"uri":"data:application/octet-stream;base64,","byteLength":183584}],"bufferViews":[{"buffer":0,"byteOffset":0,"byteLength":48384,"target":34963},{"buffer":0,"byteOffset":48384,"byteLength":50700,"target":34962},{"buffer":0,"byteOffset":99084,"byteLength":50700,"target":34962},{"buffer":0,"byteOffset":149784,"byteLength":33800,"target":34962},{"buffer":1,"byteOffset":0,"byteLength":48384,"target":34963},{"buffer":1,"byteOffset":48384,"byteLength":50700,"target":34962},{"buffer":1,"byteOffset":99084,"byteLength":50700,"target":34962},{"buffer":1,"byteOffset":149784,"byteLength":33800,"target":34962},{"buffer":2,"byteOffset":0,"byteLength":72,"target":34963},{"buffer":2,"byteOffset":72,"byteLength":288,"target":34962},{"buffer":2,"byteOffset":360,"byteLength":288,"target":34962},{"buffer":2,"byteOffset":648,"byteLength":192,"target":34962},{"buffer":3,"byteOffset":0,"byteLength":1200,"target":34963},{"buffer":3,"byteOffset":1200,"byteLength":1200,"target":34962},{"buffer":3,"byteOffset":2400,"byteLength":1200,"target":34962},{"buffer":3,"byteOffset":3600,"byteLength":800,"target":34962},{"buffer":4,"byteOffset":0,"byteLength":12000,"target":34963},{"buffer":4,"byteOffset":12000,"byteLength":12000,"target":34962},{"buffer":4,"byteOffset":24000,"byteLength":12000,"target":34962},{"buffer":4,"byteOffset":36000,"byteLength":8000,"target":34962},{"buffer":5,"byteOffset":0,"byteLength":12000,"target":34963},{"buffer":5,"byteOffset":12000,"byteLength":12000,"target":34962},{"buffer":5,"byteOffset":24000,"byteLength":12000,"target":34962},{"buffer":5,"byteOffset":36000,"byteLength":8000,"target":34962},{"buffer":6,"byteOffset":0,"byteLength":4296,"target":34963},{"buffer":6,"byteOffset":4296,"byteLength":7200,"target":34962},{"buffer":6,"byteOffset":11496,"byteLength":7200,"target":34962},{"buffer":6,"byteOffset":18696,"byteLength":4800,"target":34962},{"buffer":7,"byteOffset":0,"byteLength":48384,"target":34963},{"buffer":7,"byteOffset":48384,"byteLength":50700,"target":34962},{"buffer":7,"byteOffset":99084,"byteLength":50700,"target":34962},{"buffer":7,"byteOffset":149784,"byteLength":33800,"target":34962}],"accessors":[{"bufferView":0,"byteOffset":0,"componentType":5123,"count":24192,"type":"SCALAR","min":[0],"max":[4224]},{"bufferView":1,"byteOffset":0,"componentType":5126,"count":4225,"type":"VEC3","min":[-15,-80.5,-15],"max":[15,80.5,15]},{"bufferView":2,"byteOffset":0,"componentType":5126,"count":4225,"type":"VEC3","min":[-1,-1,-1],"max":[1,1,1]},{"bufferView":3,"byteOffset":0,"componentType":5126,"count":4225,"type":"VEC2","min":[-0.0078125,0],"max":[1.0078125,1]},{"bufferView":4,"byteOffset":0,"componentType":5123,"count":24192,"type":"SCALAR","min":[0],"max":[4224]},{"bufferView":5,"byteOffset":0,"componentType":5126,"count":4225,"type":"VEC3","min":[-17,-79.5,-16],"max":[17,79.5,16]},{"bufferView":6,"byteOffset":0,"componentType":5126,"count":4225,"type":"VEC3","min":[-1,-1,-1],"max":[1,1,1]},{"bufferView":7,"byteOffset":0,"componentType":5126,"count":4225,"type":"VEC2","min":[-0.0078125,0],"max":[1.0078125,1]},{"bufferView":8,"byteOffset":0,"componentType":5123,"count":36,"type":"SCALAR","min":[0],"max":[23]},{"bufferView":9,"byteOffset":0,"componentType":5126,"count":24,"type":"VEC3","min":[-97.5,-44.5,-42],"max":[97.5,44.5,42]},{"bufferView":10,"byteOffset":0,"componentType":5126,"count":24,"type":"VEC3","min":[-1,-1,-1],"max":[1,1,1]},{"bufferView":11,"byteOffset":0,"componentType":5126,"count":24,"type":"VEC2","min":[0,0],"max":[1,1]},{"bufferView":12,"byteOffset":0,"componentType":5125,"count":300,"type":"SCALAR","min":[0],"max":[40]},{"bufferView":13,"byteOffset":0,"componentType":5126,"count":100,"type":"VEC3","min":[0,0,0],"max":[40.8062629699707,23.2241268157959,0]},{"bufferView":14,"byteOffset":0,"componentType":5126,"count":100,"type":"VEC3","min":[0,0,0],"max":[0,0,1]},{"bufferView":15,"byteOffset":0,"componentType":5126,"count":100,"type":"VEC2","min":[0,0],"max":[1,1]},{"bufferView":16,"byteOffset":0,"componentType":5125,"count":3000,"type":"SCALAR","min":[0],"max":[127]},{"bufferView":17,"byteOffset":0,"componentType":5126,"count":1000,"type":"VEC3","min":[-13,-13,0],"max":[13,13,0]},{"bufferView":18,"byteOffset":0,"componentType":5126,"count":1000,"type":"VEC3","min":[0,0,0],"max":[0,0,1]},{"bufferView":19,"byteOffset":0,"componentType":5126,"count":1000,"type":"VEC2","min":[0,0],"max":[1,1]},{"bufferView":20,"byteOffset":0,"componentType":5125,"count":3000,"type":"SCALAR","min":[0],"max":[127]},{"bufferView":21,"byteOffset":0,"componentType":5126,"count":1000,"type":"VEC3","min":[-13,-12.5,0],"max":[13,12.5,0]},{"bufferView":22,"byteOffset":0,"componentType":5126,"count":1000,"type":"VEC3","min":[0,0,0],"max":[0,0,1]},{"bufferView":23,"byteOffset":0,"componentType":5126,"count":1000,"type":"VEC2","min":[0,0],"max":[1,1]},{"bufferView":24,"byteOffset":0,"componentType":5123,"count":2148,"type":"SCALAR","min":[0],"max":[599]},{"bufferView":25,"byteOffset":0,"componentType":5126,"count":600,"type":"VEC3","min":[-83.5,-35,-25],"max":[83.5,35,25]},{"bufferView":26,"byteOffset":0,"componentType":5126,"count":600,"type":"VEC3","min":[-1,-1,-1],"max":[1,1,1]},{"bufferView":27,"byteOffset":0,"componentType":5126,"count":600,"type":"VEC2","min":[0,0],"max":[1,1]},{"bufferView":28,"byteOffset":0,"componentType":5123,"count":24192,"type":"SCALAR","min":[0],"max":[4224]},{"bufferView":29,"byteOffset":0,"componentType":5126,"count":4225,"type":"VEC3","min":[-86.5,-129.5,-86.5],"max":[86.5,129.5,86.5]},{"bufferView":30,"byteOffset":0,"componentType":5126,"count":4225,"type":"VEC3","min":[-1,-1,-1],"max":[1,1,1]},{"bufferView":31,"byteOffset":0,"componentType":5126,"count":4225,"type":"VEC2","min":[-0.0078125,0],"max":[1.0078125,1]}],"extensions":{"KHR_lights_punctual":{"lights":[{"type":"directional","name":"Default Directional Light","color":[1,1,1],"intensity":0.75}]}},"extensionsUsed":["KHR_lights_punctual"]}